<svg xmlns="http://www.w3.org/2000/svg" viewBox="0 0 131.24 128"><defs><style>.cls-1{fill:#0b2032;fill-rule:evenodd;}</style></defs><g id="Layer_2" data-name="Layer 2"><g id="Layer_1-2" data-name="Layer 1"><path class="cls-1" d="M65.62,0A65.63,65.63,0,0,0,44.88,127.89c3.28.6,4.48-1.43,4.48-3.17,0-1.55-.06-5.68-.09-11.16-18.25,4-22.11-8.79-22.11-8.79-3-7.58-7.28-9.6-7.28-9.6-6-4.07.45-4,.45-4,6.58.46,10.05,6.76,10.05,6.76,5.85,10,15.36,7.13,19.1,5.45.59-4.24,2.29-7.13,4.16-8.77C39.07,93,23.75,87.34,23.75,62.19a25.37,25.37,0,0,1,6.76-17.61c-.68-1.66-2.93-8.33.64-17.36,0,0,5.51-1.77,18.05,6.72a62.14,62.14,0,0,1,32.85,0c12.53-8.49,18-6.72,18-6.72,3.58,9,1.33,15.7.65,17.36a25.32,25.32,0,0,1,6.75,17.61c0,25.21-15.34,30.76-30,32.38,2.35,2,4.45,6,4.45,12.15,0,8.78-.08,15.85-.08,18,0,1.76,1.18,3.8,4.51,3.16A65.63,65.63,0,0,0,65.62,0Z"/></g></g></svg>