<svg xmlns="http://www.w3.org/2000/svg" viewBox="0 0 576 143.42"><defs><style>.cls-1{fill:#7dd0e9;}</style></defs><g id="Layer_2" data-name="Layer 2"><g id="Layer_4" data-name="Layer 4"><path class="cls-1" d="M282.85,141.91H233.66a49.11,49.11,0,0,1-17.85-3.28,46,46,0,0,1-14.95-9.27,44.66,44.66,0,0,1-14.13-33.24A50.23,50.23,0,0,1,190,78,42.86,42.86,0,0,1,199,63.51a42.1,42.1,0,0,1,14.26-9.65,51.46,51.46,0,0,1,37.46,0A42.15,42.15,0,0,1,265,63.51,43,43,0,0,1,274.09,78a50.23,50.23,0,0,1,3.21,18.1,47.1,47.1,0,0,1-1.51,11.8,45.69,45.69,0,0,1-4.42,11,38.54,38.54,0,0,1-7.06,9.15,28.42,28.42,0,0,1-9.33,6v.25h27.87ZM195.06,96.12a38.9,38.9,0,0,0,2.84,14.82,36.85,36.85,0,0,0,7.94,12.18,38.12,38.12,0,0,0,27.56,11.22,33.68,33.68,0,0,0,26.37-11.73,36.4,36.4,0,0,0,6.87-12.17,45.58,45.58,0,0,0-.19-29.39,35.83,35.83,0,0,0-7.25-12.18,32.88,32.88,0,0,0-11.6-8.07,43.3,43.3,0,0,0-31.16,0,33,33,0,0,0-11.61,8.07,35.83,35.83,0,0,0-7.25,12.18A44.18,44.18,0,0,0,195.06,96.12Z"/><path class="cls-1" d="M370.14,125.51c0,1.09,0,2.42.13,4s.14,3.13.19,4.72.1,3.09.19,4.48.12,2.46.12,3.22H363.2q-.12-3.28-.18-6.31a20.27,20.27,0,0,0-.32-3.91h-.38a20.45,20.45,0,0,1-7.57,8.27,22.06,22.06,0,0,1-12.36,3.46,25.25,25.25,0,0,1-11.16-2.14,17.64,17.64,0,0,1-6.81-5.61,20.34,20.34,0,0,1-3.35-8,48.55,48.55,0,0,1-.88-9.33V83.63h7.57v34.31a37.07,37.07,0,0,0,.63,6.88,18,18,0,0,0,2.21,6A11.48,11.48,0,0,0,335,135a15,15,0,0,0,7.38,1.58,21.45,21.45,0,0,0,7.88-1.45,17,17,0,0,0,6.44-4.41A21.68,21.68,0,0,0,361,123.3a31.72,31.72,0,0,0,1.57-10.53V83.63h7.57Z"/><path class="cls-1" d="M467.65,130.93a25.52,25.52,0,0,1-10.91,9.59,34.68,34.68,0,0,1-14.32,2.9,30.93,30.93,0,0,1-12.11-2.27,27.17,27.17,0,0,1-9.34-6.37,28.1,28.1,0,0,1-6-9.71,35.66,35.66,0,0,1-2.08-12.43,33.07,33.07,0,0,1,2.15-12.1,28.82,28.82,0,0,1,6.05-9.65,28.45,28.45,0,0,1,9.21-6.44A28.87,28.87,0,0,1,442,82.12a28.16,28.16,0,0,1,11.79,2.33,25.89,25.89,0,0,1,8.58,6.18,26.33,26.33,0,0,1,5.24,8.77,29.47,29.47,0,0,1,1.76,10v5.29H420.47a26,26,0,0,0,.95,6.12,21.44,21.44,0,0,0,3.47,7.25,21.93,21.93,0,0,0,6.74,6.06q4.23,2.52,10.92,2.52a24.33,24.33,0,0,0,11.22-2.77,20.29,20.29,0,0,0,8.33-7.57Zm-5.8-23.08a17.21,17.21,0,0,0-1.58-7.31,19.63,19.63,0,0,0-4.29-6,20.5,20.5,0,0,0-6.43-4.1,20.71,20.71,0,0,0-7.89-1.51,19.31,19.31,0,0,0-10.28,2.52,22.49,22.49,0,0,0-6.49,5.81,22.87,22.87,0,0,0-3.41,6.37,17.07,17.07,0,0,0-1,4.22Z"/><path class="cls-1" d="M512.8,46.55h7.57v95.36H512.8Z"/><path class="cls-1" d="M568.43,46.55H576v95.36h-7.57Z"/><path class="cls-1" d="M202,30.13c-2.42,0-.48-8.06-5.76-10.48.66-6.7,7.9-11.21,10.24-6.71,9.24,13.83,13.52-14-.88-12.91C194.16,2.35,194,11.09,191.89,17.1,130.4,2.6,130.56,113.24,0,63.41,54.27,158.66,154.72,172,175.87,69.08c-16.51-6.87-16.94-34.84,4.82-43.52-12.83,20.56-5.84,27.57,1.38,32.66,3.75-9,17.27-19.68,31.28-20.52C213.35,37.7,209.22,31.57,202,30.13Z"/></g></g></svg>