<svg xmlns="http://www.w3.org/2000/svg" viewBox="0 0 1046.07 683.53"><defs><style>.cls-1,.cls-10,.cls-11,.cls-2,.cls-4,.cls-5,.cls-6,.cls-7,.cls-8,.cls-9{fill:none;}.cls-1,.cls-10,.cls-4,.cls-5,.cls-9{stroke:#bad8e2;}.cls-1,.cls-2{stroke-miterlimit:10;}.cls-1{stroke-width:9px;}.cls-11,.cls-2,.cls-6,.cls-7,.cls-8{stroke:#7dd0e9;}.cls-2{stroke-width:8px;}.cls-3{fill:#bad8e2;opacity:0.65;}.cls-10,.cls-11,.cls-4,.cls-5,.cls-6,.cls-7,.cls-8,.cls-9{stroke-linecap:round;stroke-linejoin:round;stroke-width:5px;}.cls-5{stroke-dasharray:4.08 20.41;}.cls-7{stroke-dasharray:3.88 19.39;}.cls-8{stroke-dasharray:3.87 19.33;}.cls-9{stroke-dasharray:4.15 20.74;}.cls-10{stroke-dasharray:3.86 19.31;}.cls-11{stroke-dasharray:3.85 19.27;}.cls-12{font-size:35.25px;fill:#40677a;font-family:Avenir-Light, Avenir;font-weight:300;letter-spacing:0.2em;}</style></defs><g id="Layer_2" data-name="Layer 2"><g id="Layer_4" data-name="Layer 4"><polygon class="cls-1" points="252.44 493.78 209.18 493.78 187.55 531.24 209.18 568.7 252.44 568.7 274.07 531.24 252.44 493.78"/><polygon class="cls-1" points="522.36 591.83 484.9 613.46 484.9 656.71 522.36 678.34 559.82 656.71 559.82 613.46 522.36 591.83"/><polygon class="cls-1" points="67.75 158.81 24.57 161.35 5.19 200.02 28.98 236.15 72.16 233.6 91.55 194.93 67.75 158.81"/><polygon class="cls-2" points="192.4 300.89 162.63 313.78 158.91 346.01 184.96 365.34 214.73 352.45 218.45 320.22 192.4 300.89"/><polygon class="cls-2" points="413.38 488.35 381.14 492.01 368.19 521.76 387.48 547.85 419.71 544.19 432.66 514.44 413.38 488.35"/><polygon class="cls-2" points="221.96 4.62 193.86 20.84 193.86 53.28 221.96 69.5 250.05 53.28 250.05 20.84 221.96 4.62"/><polygon class="cls-1" points="793.63 493.78 836.89 493.78 858.52 531.24 836.89 568.7 793.63 568.7 772 531.24 793.63 493.78"/><polygon class="cls-1" points="978.32 158.81 1021.5 161.35 1040.88 200.02 1017.09 236.15 973.91 233.6 954.52 194.93 978.32 158.81"/><polygon class="cls-2" points="853.68 300.89 883.45 313.78 887.16 346.01 861.11 365.34 831.34 352.45 827.62 320.22 853.68 300.89"/><polygon class="cls-2" points="632.7 488.35 664.93 492.01 677.88 521.76 658.59 547.85 626.36 544.19 613.41 514.44 632.7 488.35"/><polygon class="cls-2" points="824.12 4.62 852.21 20.84 852.21 53.28 824.12 69.5 796.02 53.28 796.02 20.84 824.12 4.62"/><circle class="cls-3" cx="523.04" cy="164.98" r="85.96"/><line class="cls-4" x1="523.04" y1="583.82" x2="523.04" y2="581.82"/><line class="cls-5" x1="523.04" y1="561.41" x2="523.04" y2="277.7"/><line class="cls-4" x1="523.04" y1="267.49" x2="523.04" y2="265.49"/><line class="cls-6" x1="227.99" y1="312.62" x2="229.76" y2="311.69"/><line class="cls-7" x1="246.93" y1="302.68" x2="423.83" y2="209.9"/><line class="cls-6" x1="432.42" y1="205.39" x2="434.19" y2="204.46"/><line class="cls-6" x1="416.51" y1="478.93" x2="417.14" y2="477.03"/><line class="cls-8" x1="423.21" y1="458.68" x2="485.75" y2="269.62"/><line class="cls-6" x1="488.79" y1="260.44" x2="489.42" y2="258.54"/><line class="cls-4" x1="257.55" y1="488.34" x2="258.79" y2="486.77"/><line class="cls-9" x1="271.57" y1="470.43" x2="449.25" y2="243.4"/><line class="cls-4" x1="455.64" y1="235.23" x2="456.87" y2="233.65"/><line class="cls-4" x1="101.82" y1="193.86" x2="103.82" y2="193.7"/><line class="cls-10" x1="123.07" y1="192.21" x2="413.71" y2="169.71"/><line class="cls-4" x1="423.33" y1="168.96" x2="425.33" y2="168.81"/><line class="cls-6" x1="261.46" y1="56.82" x2="263.31" y2="57.6"/><line class="cls-11" x1="281.05" y1="65.12" x2="421.2" y2="124.47"/><line class="cls-6" x1="430.07" y1="128.23" x2="431.91" y2="129.01"/><line class="cls-6" x1="818.09" y1="312.62" x2="816.31" y2="311.69"/><line class="cls-7" x1="799.14" y1="302.68" x2="622.24" y2="209.9"/><line class="cls-6" x1="613.65" y1="205.39" x2="611.88" y2="204.46"/><line class="cls-6" x1="629.56" y1="478.93" x2="628.93" y2="477.03"/><line class="cls-8" x1="622.86" y1="458.68" x2="560.32" y2="269.62"/><line class="cls-6" x1="557.28" y1="260.44" x2="556.65" y2="258.54"/><line class="cls-4" x1="788.52" y1="488.34" x2="787.28" y2="486.77"/><line class="cls-9" x1="774.5" y1="470.43" x2="596.82" y2="243.4"/><line class="cls-4" x1="590.43" y1="235.23" x2="589.2" y2="233.65"/><line class="cls-4" x1="944.25" y1="193.86" x2="942.25" y2="193.7"/><line class="cls-10" x1="923" y1="192.21" x2="632.36" y2="169.71"/><line class="cls-4" x1="622.74" y1="168.96" x2="620.74" y2="168.81"/><line class="cls-6" x1="784.61" y1="56.82" x2="782.77" y2="57.6"/><line class="cls-11" x1="765.03" y1="65.12" x2="624.87" y2="124.47"/><line class="cls-6" x1="616" y1="128.23" x2="614.16" y2="129.01"/><text class="cls-12" transform="translate(460.41 181.27)">Query</text></g></g></svg>