<svg xmlns="http://www.w3.org/2000/svg" xmlns:xlink="http://www.w3.org/1999/xlink" viewBox="0 0 729.64 770.36"><defs><style>.cls-1{fill:none;}.cls-2{clip-path:url(#clip-path);}.cls-3{fill:url(#linear-gradient);}.cls-4{fill:url(#linear-gradient-2);}.cls-5{fill:#7dd0e9;}.cls-6{fill:#bad8e2;}.cls-7{fill:#d0e4ea;}.cls-10,.cls-11,.cls-8,.cls-9{fill:#49748b;}.cls-8{fill-opacity:0.6;}.cls-9{fill-opacity:0.9;}.cls-10{fill-opacity:0.8;}.cls-12,.cls-14{fill:#40677a;}.cls-13{opacity:0.75;}.cls-14{opacity:0.1;}</style><clipPath id="clip-path" transform="translate(196.32 -12.7)"><rect class="cls-1" width="690.79" height="747.04"/></clipPath><linearGradient id="linear-gradient" x1="252.64" y1="720.17" x2="331.15" y2="349.15" gradientTransform="matrix(0.84, 0.3, -0.34, 0.94, 154.7, 10.34)" gradientUnits="userSpaceOnUse"><stop offset="0.03" stop-color="#fff"/><stop offset="0.16" stop-color="#f7fcfe"/><stop offset="0.35" stop-color="#e3f5fa"/><stop offset="0.59" stop-color="#c0e8f4"/><stop offset="0.86" stop-color="#91d7ec"/><stop offset="0.96" stop-color="#7dd0e9"/></linearGradient><linearGradient id="linear-gradient-2" x1="78.04" y1="779.6" x2="164.08" y2="193.28" gradientTransform="matrix(0.84, 0.3, -0.34, 0.94, 154.7, 10.34)" gradientUnits="userSpaceOnUse"><stop offset="0.08" stop-color="#fff"/><stop offset="0.26" stop-color="#fdfeff"/><stop offset="0.37" stop-color="#f4fbfd"/><stop offset="0.46" stop-color="#e6f6fb"/><stop offset="0.53" stop-color="#d2eff7"/><stop offset="0.6" stop-color="#b9e6f3"/><stop offset="0.66" stop-color="#9adaee"/><stop offset="0.71" stop-color="#7dd0e9"/></linearGradient></defs><g id="Layer_2" data-name="Layer 2"><g id="Layer_15" data-name="Layer 15"><g class="cls-2"><path class="cls-3" d="M80.82,749.65l93.49,33.42c5.45-23.93,12.08-56.23,20.09-99.87,17.27-94.08,84.26-157.7,191.16-258.71l8-22.47c-65.87,40.85-196.35,134.49-242.2,214.09C118.61,673,104,718.17,80.82,749.65" transform="translate(196.32 -12.7)"/><path class="cls-4" d="M46.76,580.44c-110.85,84.43-161.3,68.61-243.08,46.89l1.9,9.24c.58,1.06,9.83,3,10.91,3.42L9.94,725.36c28.26-15.18,54.79-38.48,76.81-73.08,86.29-135.61,207.88-209.18,282.3-244l5-14.07c-61.41,18.72-169.6,66.14-327.31,186.26" transform="translate(196.32 -12.7)"/><polygon class="cls-5" points="693.79 297.8 563.94 359.97 463.33 325.63 580.94 283.47 693.79 297.8"/><polygon class="cls-6" points="563.94 359.97 578.47 447.43 704.53 378.02 693.79 297.8 563.94 359.97"/><polygon class="cls-7" points="563.94 359.97 578.47 447.43 480.2 398.6 463.33 325.63 563.94 359.97"/><polygon class="cls-8" points="515.44 416.11 499.58 338 517.02 343.95 531.73 424.21 515.44 416.11"/><polygon class="cls-9" points="625.12 330.71 638.78 414.13 655.21 405.17 641.36 322.9 625.12 330.71"/><polygon class="cls-10" points="559.77 260.85 546.65 295.76 526.78 302.88 559.77 260.85"/><path class="cls-11" d="M363.45,273.55,422,300.92l22.59,2.87S426.51,286.8,363.45,273.55Z" transform="translate(196.32 -12.7)"/><polygon class="cls-12" points="559.86 261.62 559.49 261.19 435.28 117.85 436.03 117.2 559.87 260.11 692.25 111.53 693 112.2 559.86 261.62"/><polygon class="cls-12" points="559.98 260.77 559.6 259.97 505.07 145.08 505.77 144.22 560.12 258.74 633.83 146.33 634.54 147.07 559.98 260.77"/><g class="cls-13"><path class="cls-7" d="M375.85,12.73v0s-63.21,28-71.59,151.58c0,0,19.24-35.91,67.82-33.91s71.33,35.77,71.5,35.64C447.37,42.33,376,12.81,375.85,12.73Z" transform="translate(196.32 -12.7)"/></g><path class="cls-5" d="M375.84,12.73s-61.3,29.34-71.58,151.55c0,0-34.69-26.12-89.64-4.41C214.62,159.87,228.51,19.66,375.84,12.73Z" transform="translate(196.32 -12.7)"/><path class="cls-5" d="M375.85,12.7S439.52,44.31,443.58,166c0,0,35.35-25.24,89.73-2.15C533.31,163.86,523,23.35,375.85,12.7Z" transform="translate(196.32 -12.7)"/><path class="cls-5" d="M393,61.39c-.69.26-1.64-2.8-3.42-3-.52-2.09,1.11-4.19,2.26-3.07,4.13,3.22,2.44-5.61-1.61-3.8-3.06,1.87-2.19,4.52-2.16,6.54C368.76,60,380.42,93.3,337.36,91.64c25.72,23.14,59.79,15.22,53.21-17.21-5.51-.38-10.23-7.83-4.83-12.67-1.56,7.51,3,8.35,5.32,8.31a7.23,7.23,0,0,1,5.9-6.43S396.47,62.12,393,61.39Z" transform="translate(196.32 -12.7)"/><polygon class="cls-14" points="499.58 338 567.05 309.72 618.34 288.22 640.92 291.08 583.11 315.75 517.02 343.95 499.58 338"/><polygon class="cls-11" points="499.58 338 559.77 260.85 517.02 343.95 499.58 338"/><polygon class="cls-11" points="625.12 330.71 559.77 260.85 641.36 322.9 625.12 330.71"/></g></g></g></svg>