<?xml version="1.0" encoding="utf-8"?>
<!-- Generator: Adobe Illustrator 25.2.1, SVG Export Plug-In . SVG Version: 6.00 Build 0)  -->
<svg version="1.1" id="Layer_1" xmlns="http://www.w3.org/2000/svg" xmlns:xlink="http://www.w3.org/1999/xlink" x="0px" y="0px"
	 viewBox="0 0 243.6 268.6" style="enable-background:new 0 0 243.6 268.6;" xml:space="preserve">
<style type="text/css">
	.st0{fill:#7DD0E9;}
	.st1{clip-path:url(#SVGID_2_);}
	.st2{clip-path:url(#SVGID_4_);}
</style>
<g id="Layer_2_1_">
	<g id="Layer_4">
		<path class="st0" d="M140,250.7c0-1-0.2-2.1-0.4-3.1l76.1-43.9c7.6,5.8,18.5,4.4,24.3-3.2c5.8-7.6,4.4-18.5-3.2-24.3
			c-1.8-1.4-4-2.4-6.2-3V89.7c9.3-2.4,14.8-11.9,12.4-21.2c-2.4-9.3-11.9-14.8-21.2-12.4c-3.7,1-7,3.1-9.4,6.2l-71-41
			c2.2-9.3-3.5-18.7-12.9-20.9c-9.3-2.2-18.7,3.5-20.9,12.9c-0.4,1.5-0.5,3-0.5,4.6c0,1.2,0.2,2.3,0.4,3.5l-71,41
			c-5.8-7.6-16.7-9-24.3-3.2s-9,16.7-3.2,24.3c2.4,3.1,5.7,5.3,9.5,6.3v83.5C9.4,175.5,3.8,185,6.2,194.3s11.8,14.9,21.1,12.5
			c2.3-0.6,4.4-1.6,6.3-3.1l72.7,42c-3.1,9.1,1.7,18.9,10.8,22s18.9-1.7,22-10.8C139.7,254.9,140,252.8,140,250.7L140,250.7z
			 M111.8,29c6.4,7.1,17.4,7.6,24.4,1.2c0.4-0.4,0.8-0.8,1.2-1.2l71.6,41.4c-0.1,1-0.2,2-0.2,3c0.3,7.7,5.5,14.3,13,16.2v83.5
			c-9.3,2.4-14.8,11.8-12.5,21.1c0.2,0.9,0.5,1.7,0.9,2.6l-74.6,43.1c-6.3-7.2-17.2-7.9-24.4-1.7c-0.1,0.1-0.2,0.1-0.2,0.2l-72-41.6
			c3.8-8.8-0.2-19-9-22.7c-0.8-0.4-1.7-0.7-2.6-0.9V89.7c7.8-2,13.2-9.2,13-17.3c0-0.7-0.1-1.3-0.2-2L111.8,29z"/>
		<g>
			<defs>
				<path id="SVGID_1_" d="M208.9,73.3c0-1,0-2,0.2-3.1l-71.6-41.3c-6.4,7.1-17.4,7.6-24.5,1.2c-0.4-0.4-0.8-0.8-1.2-1.2L40.2,70.2
					c0.1,0.7,0.2,1.3,0.2,2c0.2,8.1-5.1,15.3-13,17.3V173c9.3,2.4,14.8,11.8,12.5,21c-0.2,0.9-0.5,1.7-0.9,2.6l72.1,41.6
					c7.1-6.4,18-5.9,24.4,1.2c0.1,0.1,0.1,0.2,0.2,0.2l74.6-43.1c-3.8-8.8,0.2-18.9,9-22.7c0.8-0.4,1.7-0.7,2.6-0.9V89.5
					C214.4,87.6,209.1,81,208.9,73.3z"/>
			</defs>
			<clipPath id="SVGID_2_">
				<use xlink:href="#SVGID_1_"  style="overflow:visible;"/>
			</clipPath>
			<g class="st1">
				<g id="Mike">
					<g>
						<defs>
							<rect id="SVGID_3_" y="13.3" width="235.2" height="246"/>
						</defs>
						<clipPath id="SVGID_4_">
							<use xlink:href="#SVGID_3_"  style="overflow:visible;"/>
						</clipPath>
						<g class="st2">
							
								<image style="overflow:visible;enable-background:new    ;" width="461" height="482" id="Mike-2" xlink:href="1C760BF6E9B358CD.png"  transform="matrix(0.5089 0 0 0.5089 0 13.3216)">
							</image>
							
								<image style="overflow:visible;" width="2316" height="2750" xlink:href="dasha_avatar.jpg"  transform="matrix(9.353892e-02 0 0 9.353892e-02 4.6042 -10.5029)">
							</image>
						</g>
					</g>
				</g>
			</g>
		</g>
	</g>
</g>
</svg>
