<svg id="Layer_2" data-name="Layer 2" xmlns="http://www.w3.org/2000/svg" viewBox="0 0 508.73 555.09"><defs><style>.cls-1{fill:#7dd0e9;}.cls-2{fill:#fff;}</style></defs><rect class="cls-1" x="17.5" y="17.5" width="473.73" height="520.09" rx="72.5"/><path class="cls-1" d="M462,133.35a55.06,55.06,0,0,1,55,55V563.44a55.06,55.06,0,0,1-55,55H133.27a55.06,55.06,0,0,1-55-55V188.35a55.06,55.06,0,0,1,55-55H462m0-35H133.27a90,90,0,0,0-90,90V563.44a90,90,0,0,0,90,90H462a90,90,0,0,0,90-90V188.35a90,90,0,0,0-90-90Z" transform="translate(-43.27 -98.35)"/><polygon class="cls-2" points="254.36 394.54 383.83 250.66 124.9 250.66 254.36 394.54"/></svg>