<svg xmlns="http://www.w3.org/2000/svg" viewBox="0 0 128 127.9"><defs><style>.cls-1{fill:#40677a;}</style></defs><g id="Layer_2" data-name="Layer 2"><g id="Layer_1-2" data-name="Layer 1"><path class="cls-1" d="M128,9.12a9.72,9.72,0,0,0-.12-1.42,9.36,9.36,0,0,0-9.4-7.7C100.31.09,82.14,0,64,0H22.29C17.9,0,13.5,0,9.11.05A9.06,9.06,0,0,0,0,9.3Q0,64,0,118.63a9.78,9.78,0,0,0,.38,2.7c1.2,4.13,4.64,6.57,9.19,6.57H119.31a9.12,9.12,0,0,0,8.69-9.08Zm-89.91,98.8c0,1-.28,1.35-1.29,1.34q-8.38,0-16.76,0c-1.1,0-1.31-.44-1.3-1.43,0-9.78,0-19.55,0-29.33s0-19.47,0-29.2c0-1.13.26-1.51,1.45-1.5,5.51.06,11,0,16.52,0,1,0,1.39.25,1.39,1.33Q38,78.54,38.09,107.92Zm-9.7-68.29a11.11,11.11,0,1,1,11.14-11A11,11,0,0,1,28.39,39.63Zm80.88,68.11c0,1.25-.41,1.54-1.57,1.53q-8.08-.08-16.17,0c-1.21,0-1.58-.37-1.57-1.57,0-10.06.07-20.12,0-30.18A36.23,36.23,0,0,0,89.15,70c-1-4.43-3.86-6.56-8.42-6.62a16.38,16.38,0,0,0-4.14.38c-4.43,1.1-6.33,4.44-7.07,8.57a35.15,35.15,0,0,0-.5,6.06c0,9.78,0,19.56,0,29.34,0,1.56,0,1.57-1.61,1.57-5.39,0-10.78,0-16.17,0-1.19,0-1.57-.33-1.57-1.56q.06-29.14,0-58.31c0-1.56,0-1.56,1.6-1.56,5.19,0,10.38,0,15.57,0,1.09,0,1.47.3,1.43,1.42-.07,2.19,0,4.38,0,6.58A22.58,22.58,0,0,1,76,48.74a19.71,19.71,0,0,1,11.87-2.36,49.44,49.44,0,0,1,7.41,1.13c6.94,2,10.89,6.9,12.45,13.69a56.55,56.55,0,0,1,1.45,11.58C109.36,84.43,109.23,96.08,109.27,107.74Z"/></g></g></svg>